<?xml version="1.0" encoding="UTF-8" standalone="no"?>
<svg
   xmlns:dc="http://purl.org/dc/elements/1.1/"
   xmlns:cc="http://creativecommons.org/ns#"
   xmlns:rdf="http://www.w3.org/1999/02/22-rdf-syntax-ns#"
   xmlns:svg="http://www.w3.org/2000/svg"
   xmlns="http://www.w3.org/2000/svg"
   xmlns:sodipodi="http://sodipodi.sourceforge.net/DTD/sodipodi-0.dtd"
   xmlns:inkscape="http://www.inkscape.org/namespaces/inkscape"
   id="svg8"
   version="1.1"
   viewBox="0 0 210 297"
   height="297mm"
   width="210mm"
   sodipodi:docname="jólatré.svg"
   inkscape:version="1.0.1 (3bc2e813f5, 2020-09-07)">
  <defs
     id="defs2">
    <inkscape:path-effect
       effect="powerstroke"
       id="path-effect835"
       is_visible="true"
       lpeversion="1"
       offset_points="1,0.1322915"
       sort_points="true"
       interpolator_type="CubicBezierJohan"
       interpolator_beta="0.2"
       start_linecap_type="zerowidth"
       linejoin_type="extrp_arc"
       miter_limit="4"
       scale_width="1"
       end_linecap_type="zerowidth" />
  </defs>
  <sodipodi:namedview
     id="base"
     pagecolor="#ffffff"
     bordercolor="#666666"
     borderopacity="1.0"
     inkscape:pageopacity="0.0"
     inkscape:pageshadow="2"
     inkscape:zoom="0.74525334"
     inkscape:cx="612.89118"
     inkscape:cy="376.5102"
     inkscape:document-units="mm"
     inkscape:current-layer="layer1"
     inkscape:document-rotation="0"
     showgrid="true"
     inkscape:snap-grids="true"
     inkscape:snap-to-guides="true"
     inkscape:snap-page="false"
     inkscape:window-width="1920"
     inkscape:window-height="1001"
     inkscape:window-x="-9"
     inkscape:window-y="-9"
     inkscape:window-maximized="1">
    <inkscape:grid
       type="xygrid"
       id="grid837" />
  </sodipodi:namedview>
  <metadata
     id="metadata5">
    <rdf:RDF>
      <cc:Work
         rdf:about="">
        <dc:format>image/svg+xml</dc:format>
        <dc:type
           rdf:resource="http://purl.org/dc/dcmitype/StillImage" />
        <dc:title></dc:title>
      </cc:Work>
    </rdf:RDF>
  </metadata>
  <g
     inkscape:label="Layer 1"
     inkscape:groupmode="layer"
     id="layer1">
    <g
       id="panel7181"
       style="stroke-width:0.22;stroke-miterlimit:4;stroke-dasharray:none">
      <path
         style="fill:none;stroke:#000000;stroke-width:0.22;stroke-miterlimit:4;stroke-dasharray:none"
         d="M 38.2 128.5 L 44.1383 128.5 L 44.1383 127.1 L 44.0383 127 L 44.0383 126.9 L 44.1383 126.8 L 44.1383 125.4 L 50.3283 125.4 L 50.3283 126.8 L 50.4283 126.9 L 50.4283 127 L 50.3283 127.1 L 50.3283 128.5 L 56.1717 128.5 L 56.1717 127.1 L 56.0717 127 L 56.0717 126.9 L 56.1717 126.8 L 56.1717 125.4 L 62.3617 125.4 L 62.3617 126.8 L 62.4617 126.9 L 62.4617 127 L 62.3617 127.1 L 62.3617 128.5 L 68.205 128.5 L 68.205 127.1 L 68.105 127 L 68.105 126.9 L 68.205 126.8 L 68.205 125.4 L 74.395 125.4 L 74.395 126.8 L 74.495 126.9 L 74.495 127 L 74.395 127.1 L 74.395 128.5 L 80.2383 128.5 L 80.2383 127.1 L 80.1383 127 L 80.1383 126.9 L 80.2383 126.8 L 80.2383 125.4 L 86.4283 125.4 L 86.4283 126.8 L 86.5283 126.9 L 86.5283 127 L 86.4283 127.1 L 86.4283 128.5 L 92.2717 128.5 L 92.2717 127.1 L 92.1717 127 L 92.1717 126.9 L 92.2717 126.8 L 92.2717 125.4 L 98.4617 125.4 L 98.4617 126.8 L 98.5617 126.9 L 98.5617 127 L 98.4617 127.1 L 98.4617 128.5 L 104.4 128.5"
         id="path1066" />
      <path
         style="fill:none;stroke:#000000;stroke-width:0.22;stroke-miterlimit:4;stroke-dasharray:none"
         d="M 104.4 128.5 L 104.4 133.562 L 103 133.562 L 102.9 133.662 L 102.8 133.662 L 102.7 133.562 L 101.3 133.562 L 101.3 139.372 L 102.7 139.372 L 102.8 139.272 L 102.9 139.272 L 103 139.372 L 104.4 139.372 L 104.4 147.628 L 103 147.628 L 102.9 147.728 L 102.8 147.728 L 102.7 147.628 L 101.3 147.628 L 101.3 153.438 L 102.7 153.438 L 102.8 153.338 L 102.9 153.338 L 103 153.438 L 104.4 153.438 L 104.4 158.5"
         id="path1068" />
      <path
         style="fill:none;stroke:#000000;stroke-width:0.22;stroke-miterlimit:4;stroke-dasharray:none"
         d="M 104.4 158.5 L 98.4617 158.5 L 98.4617 159.9 L 98.5617 160 L 98.5617 160.1 L 98.4617 160.2 L 98.4617 161.6 L 92.2717 161.6 L 92.2717 160.2 L 92.1717 160.1 L 92.1717 160 L 92.2717 159.9 L 92.2717 158.5 L 86.4283 158.5 L 86.4283 159.9 L 86.5283 160 L 86.5283 160.1 L 86.4283 160.2 L 86.4283 161.6 L 80.2383 161.6 L 80.2383 160.2 L 80.1383 160.1 L 80.1383 160 L 80.2383 159.9 L 80.2383 158.5 L 74.395 158.5 L 74.395 159.9 L 74.495 160 L 74.495 160.1 L 74.395 160.2 L 74.395 161.6 L 68.205 161.6 L 68.205 160.2 L 68.105 160.1 L 68.105 160 L 68.205 159.9 L 68.205 158.5 L 62.3617 158.5 L 62.3617 159.9 L 62.4617 160 L 62.4617 160.1 L 62.3617 160.2 L 62.3617 161.6 L 56.1717 161.6 L 56.1717 160.2 L 56.0717 160.1 L 56.0717 160 L 56.1717 159.9 L 56.1717 158.5 L 50.3283 158.5 L 50.3283 159.9 L 50.4283 160 L 50.4283 160.1 L 50.3283 160.2 L 50.3283 161.6 L 44.1383 161.6 L 44.1383 160.2 L 44.0383 160.1 L 44.0383 160 L 44.1383 159.9 L 44.1383 158.5 L 38.2 158.5"
         id="path1070" />
      <path
         style="fill:none;stroke:#000000;stroke-width:0.22;stroke-miterlimit:4;stroke-dasharray:none"
         d="M 38.2 158.5 L 38.2 153.438 L 39.6 153.438 L 39.7 153.338 L 39.8 153.338 L 39.9 153.438 L 41.3 153.438 L 41.3 147.628 L 39.9 147.628 L 39.8 147.728 L 39.7 147.728 L 39.6 147.628 L 38.2 147.628 L 38.2 139.372 L 39.6 139.372 L 39.7 139.272 L 39.8 139.272 L 39.9 139.372 L 41.3 139.372 L 41.3 133.562 L 39.9 133.562 L 39.8 133.662 L 39.7 133.662 L 39.6 133.562 L 38.2 133.562 L 38.2 128.5"
         id="path1072" />
    </g>
    <g
       id="panel2222"
       style="stroke-width:0.22;stroke-miterlimit:4;stroke-dasharray:none"
       transform="translate(39.563367,167.72083)">
      <path
         style="fill:none;stroke:#000000;stroke-width:0.22;stroke-miterlimit:4;stroke-dasharray:none"
         d="m 4.1,41.3 h 4.87167 v -1.4 l -0.1,-0.1 v -0.1 l 0.1,-0.1 v -1.4 h 6.19003 v 1.4 l 0.1,0.1 v 0.1 l -0.1,0.1 v 1.4 h 7.8766 v -1.4 l -0.1,-0.1 v -0.1 l 0.1,-0.1 v -1.4 h 6.19 v 1.4 l 0.1,0.1 v 0.1 l -0.1,0.1 v 1.4 H 34.1"
         id="path1075" />
      <path
         style="fill:none;stroke:#000000;stroke-width:0.22;stroke-miterlimit:4;stroke-dasharray:none"
         d="m 34.1,41.3 v 3.9764 h 1.4 l 0.1,-0.1 h 0.1 l 0.1,0.1 h 1.4 v 6.19 h -1.4 l -0.1,0.1 h -0.1 l -0.1,-0.1 h -1.4 v 6.9815 h 1.4 l 0.1,-0.1 h 0.1 l 0.1,0.1 h 1.4 v 6.19 h -1.4 l -0.1,0.1 h -0.1 l -0.1,-0.1 h -1.4 v 6.9814 h 1.4 l 0.1,-0.1 h 0.1 l 0.1,0.1 h 1.4 v 6.19 h -1.4 l -0.1,0.1 h -0.1 l -0.1,-0.1 h -1.4 v 6.9814 h 1.4 l 0.1,-0.1 h 0.1 l 0.1,0.1 h 1.4 v 6.19 h -1.4 l -0.1,0.1 h -0.1 l -0.1,-0.1 h -1.4 v 6.9814 h 1.4 l 0.1,-0.1 h 0.1 l 0.1,0.1 h 1.4 v 6.1899 h -1.4 l -0.1,0.1 h -0.1 l -0.1,-0.1 h -1.4 v 6.982 h 1.4 l 0.1,-0.1 h 0.1 l 0.1,0.1 h 1.4 v 6.19 h -1.4 l -0.1,0.1 h -0.1 l -0.1,-0.1 h -1.4 v 3.976"
         id="path1077" />
      <path
         style="fill:none;stroke:#000000;stroke-width:0.22;stroke-miterlimit:4;stroke-dasharray:none"
         d="m 34.1,121.3 h -4.8717 v 1.4 l 0.1,0.1 v 0.1 l -0.1,0.1 v 1.4 h -6.19 V 123 l -0.1,-0.1 v -0.1 l 0.1,-0.1 v -1.4 h -7.8766 v 1.4 l 0.1,0.1 v 0.1 l -0.1,0.1 v 1.4 H 8.97167 V 123 l -0.1,-0.1 v -0.1 l 0.1,-0.1 v -1.4 H 4.1"
         id="path1079" />
      <path
         style="fill:none;stroke:#000000;stroke-width:0.22;stroke-miterlimit:4;stroke-dasharray:none"
         d="m 4.1,121.3 v -3.976 H 2.7 l -0.1,0.1 H 2.5 l -0.1,-0.1 H 1 v -6.19 h 1.4 l 0.1,-0.1 h 0.1 l 0.1,0.1 h 1.4 v -6.982 H 2.7 l -0.1,0.1 H 2.5 l -0.1,-0.1 H 1 v -6.1899 h 1.4 l 0.1,-0.1 h 0.1 l 0.1,0.1 H 4.1 V 90.9807 H 2.7 l -0.1,0.1 H 2.5 l -0.1,-0.1 H 1 v -6.19 h 1.4 l 0.1,-0.1 h 0.1 l 0.1,0.1 H 4.1 V 77.8093 H 2.7 l -0.1,0.1 H 2.5 l -0.1,-0.1 H 1 v -6.19 h 1.4 l 0.1,-0.1 h 0.1 l 0.1,0.1 H 4.1 V 64.6379 H 2.7 l -0.1,0.1 H 2.5 l -0.1,-0.1 H 1 v -6.19 h 1.4 l 0.1,-0.1 h 0.1 l 0.1,0.1 H 4.1 V 51.4664 H 2.7 l -0.1,0.1 H 2.5 l -0.1,-0.1 H 1 v -6.19 h 1.4 l 0.1,-0.1 h 0.1 l 0.1,0.1 H 4.1 V 41.3"
         id="path1081" />
    </g>
    <g
       id="panel5499"
       style="stroke-width:0.22;stroke-miterlimit:4;stroke-dasharray:none">
      <path
         style="fill:none;stroke:#000000;stroke-width:0.22;stroke-miterlimit:4;stroke-dasharray:none"
         d="M 38.2 38.2 L 44.3283 38.2 L 44.3283 39.6 L 44.4283 39.7 L 44.4283 39.8 L 44.3283 39.9 L 44.3283 41.3 L 50.1383 41.3 L 50.1383 39.9 L 50.0383 39.8 L 50.0383 39.7 L 50.1383 39.6 L 50.1383 38.2 L 56.3617 38.2 L 56.3617 39.6 L 56.4617 39.7 L 56.4617 39.8 L 56.3617 39.9 L 56.3617 41.3 L 62.1717 41.3 L 62.1717 39.9 L 62.0717 39.8 L 62.0717 39.7 L 62.1717 39.6 L 62.1717 38.2 L 68.395 38.2 L 68.395 39.6 L 68.495 39.7 L 68.495 39.8 L 68.395 39.9 L 68.395 41.3 L 74.205 41.3 L 74.205 39.9 L 74.105 39.8 L 74.105 39.7 L 74.205 39.6 L 74.205 38.2 L 80.4283 38.2 L 80.4283 39.6 L 80.5283 39.7 L 80.5283 39.8 L 80.4283 39.9 L 80.4283 41.3 L 86.2383 41.3 L 86.2383 39.9 L 86.1383 39.8 L 86.1383 39.7 L 86.2383 39.6 L 86.2383 38.2 L 92.4617 38.2 L 92.4617 39.6 L 92.5617 39.7 L 92.5617 39.8 L 92.4617 39.9 L 92.4617 41.3 L 98.2717 41.3 L 98.2717 39.9 L 98.1717 39.8 L 98.1717 39.7 L 98.2717 39.6 L 98.2717 38.2 L 104.4 38.2"
         id="path1084" />
      <path
         style="fill:none;stroke:#000000;stroke-width:0.22;stroke-miterlimit:4;stroke-dasharray:none"
         d="M 104.4 38.2 L 104.4 45.4664 L 103 45.4664 L 102.9 45.5664 L 102.8 45.5664 L 102.7 45.4664 L 101.3 45.4664 L 101.3 51.2764 L 102.7 51.2764 L 102.8 51.1764 L 102.9 51.1764 L 103 51.2764 L 104.4 51.2764 L 104.4 58.6379 L 103 58.6379 L 102.9 58.7379 L 102.8 58.7379 L 102.7 58.6379 L 101.3 58.6379 L 101.3 64.4479 L 102.7 64.4479 L 102.8 64.3479 L 102.9 64.3479 L 103 64.4479 L 104.4 64.4479 L 104.4 71.8093 L 103 71.8093 L 102.9 71.9093 L 102.8 71.9093 L 102.7 71.8093 L 101.3 71.8093 L 101.3 77.6193 L 102.7 77.6193 L 102.8 77.5193 L 102.9 77.5193 L 103 77.6193 L 104.4 77.6193 L 104.4 84.9807 L 103 84.9807 L 102.9 85.0807 L 102.8 85.0807 L 102.7 84.9807 L 101.3 84.9807 L 101.3 90.7907 L 102.7 90.7907 L 102.8 90.6907 L 102.9 90.6907 L 103 90.7907 L 104.4 90.7907 L 104.4 98.1521 L 103 98.1521 L 102.9 98.2521 L 102.8 98.2521 L 102.7 98.1521 L 101.3 98.1521 L 101.3 103.962 L 102.7 103.962 L 102.8 103.862 L 102.9 103.862 L 103 103.962 L 104.4 103.962 L 104.4 111.324 L 103 111.324 L 102.9 111.424 L 102.8 111.424 L 102.7 111.324 L 101.3 111.324 L 101.3 117.134 L 102.7 117.134 L 102.8 117.034 L 102.9 117.034 L 103 117.134 L 104.4 117.134 L 104.4 124.4"
         id="path1086" />
      <path
         style="fill:none;stroke:#000000;stroke-width:0.22;stroke-miterlimit:4;stroke-dasharray:none"
         d="M 104.4 124.4 L 98.2717 124.4 L 98.2717 123 L 98.1717 122.9 L 98.1717 122.8 L 98.2717 122.7 L 98.2717 121.3 L 92.4617 121.3 L 92.4617 122.7 L 92.5617 122.8 L 92.5617 122.9 L 92.4617 123 L 92.4617 124.4 L 86.2383 124.4 L 86.2383 123 L 86.1383 122.9 L 86.1383 122.8 L 86.2383 122.7 L 86.2383 121.3 L 80.4283 121.3 L 80.4283 122.7 L 80.5283 122.8 L 80.5283 122.9 L 80.4283 123 L 80.4283 124.4 L 74.205 124.4 L 74.205 123 L 74.105 122.9 L 74.105 122.8 L 74.205 122.7 L 74.205 121.3 L 68.395 121.3 L 68.395 122.7 L 68.495 122.8 L 68.495 122.9 L 68.395 123 L 68.395 124.4 L 62.1717 124.4 L 62.1717 123 L 62.0717 122.9 L 62.0717 122.8 L 62.1717 122.7 L 62.1717 121.3 L 56.3617 121.3 L 56.3617 122.7 L 56.4617 122.8 L 56.4617 122.9 L 56.3617 123 L 56.3617 124.4 L 50.1383 124.4 L 50.1383 123 L 50.0383 122.9 L 50.0383 122.8 L 50.1383 122.7 L 50.1383 121.3 L 44.3283 121.3 L 44.3283 122.7 L 44.4283 122.8 L 44.4283 122.9 L 44.3283 123 L 44.3283 124.4 L 38.2 124.4"
         id="path1088" />
      <path
         style="fill:none;stroke:#000000;stroke-width:0.22;stroke-miterlimit:4;stroke-dasharray:none"
         d="M 38.2 124.4 L 38.2 117.134 L 39.6 117.134 L 39.7 117.034 L 39.8 117.034 L 39.9 117.134 L 41.3 117.134 L 41.3 111.324 L 39.9 111.324 L 39.8 111.424 L 39.7 111.424 L 39.6 111.324 L 38.2 111.324 L 38.2 103.962 L 39.6 103.962 L 39.7 103.862 L 39.8 103.862 L 39.9 103.962 L 41.3 103.962 L 41.3 98.1521 L 39.9 98.1521 L 39.8 98.2521 L 39.7 98.2521 L 39.6 98.1521 L 38.2 98.1521 L 38.2 90.7907 L 39.6 90.7907 L 39.7 90.6907 L 39.8 90.6907 L 39.9 90.7907 L 41.3 90.7907 L 41.3 84.9807 L 39.9 84.9807 L 39.8 85.0807 L 39.7 85.0807 L 39.6 84.9807 L 38.2 84.9807 L 38.2 77.6193 L 39.6 77.6193 L 39.7 77.5193 L 39.8 77.5193 L 39.9 77.6193 L 41.3 77.6193 L 41.3 71.8093 L 39.9 71.8093 L 39.8 71.9093 L 39.7 71.9093 L 39.6 71.8093 L 38.2 71.8093 L 38.2 64.4479 L 39.6 64.4479 L 39.7 64.3479 L 39.8 64.3479 L 39.9 64.4479 L 41.3 64.4479 L 41.3 58.6379 L 39.9 58.6379 L 39.8 58.7379 L 39.7 58.7379 L 39.6 58.6379 L 38.2 58.6379 L 38.2 51.2764 L 39.6 51.2764 L 39.7 51.1764 L 39.8 51.1764 L 39.9 51.2764 L 41.3 51.2764 L 41.3 45.4664 L 39.9 45.4664 L 39.8 45.5664 L 39.7 45.5664 L 39.6 45.4664 L 38.2 45.4664 L 38.2 38.2"
         id="path1090" />
    </g>
    <g
       id="panel6181"
       style="stroke-width:0.22;stroke-miterlimit:4;stroke-dasharray:none">
      <path
         style="fill:none;stroke:#000000;stroke-width:0.22;stroke-miterlimit:4;stroke-dasharray:none"
         d="M 108.5 41.3 L 113.372 41.3 L 113.372 39.9 L 113.272 39.8 L 113.272 39.7 L 113.372 39.6 L 113.372 38.2 L 119.562 38.2 L 119.562 39.6 L 119.662 39.7 L 119.662 39.8 L 119.562 39.9 L 119.562 41.3 L 127.438 41.3 L 127.438 39.9 L 127.338 39.8 L 127.338 39.7 L 127.438 39.6 L 127.438 38.2 L 133.628 38.2 L 133.628 39.6 L 133.728 39.7 L 133.728 39.8 L 133.628 39.9 L 133.628 41.3 L 138.5 41.3"
         id="path1093" />
      <path
         style="fill:none;stroke:#000000;stroke-width:0.22;stroke-miterlimit:4;stroke-dasharray:none"
         d="M 138.5 41.3 L 138.5 45.2764 L 139.9 45.2764 L 140 45.1764 L 140.1 45.1764 L 140.2 45.2764 L 141.6 45.2764 L 141.6 51.4664 L 140.2 51.4664 L 140.1 51.5664 L 140 51.5664 L 139.9 51.4664 L 138.5 51.4664 L 138.5 58.4479 L 139.9 58.4479 L 140 58.3479 L 140.1 58.3479 L 140.2 58.4479 L 141.6 58.4479 L 141.6 64.6379 L 140.2 64.6379 L 140.1 64.7379 L 140 64.7379 L 139.9 64.6379 L 138.5 64.6379 L 138.5 71.6193 L 139.9 71.6193 L 140 71.5193 L 140.1 71.5193 L 140.2 71.6193 L 141.6 71.6193 L 141.6 77.8093 L 140.2 77.8093 L 140.1 77.9093 L 140 77.9093 L 139.9 77.8093 L 138.5 77.8093 L 138.5 84.7907 L 139.9 84.7907 L 140 84.6907 L 140.1 84.6907 L 140.2 84.7907 L 141.6 84.7907 L 141.6 90.9807 L 140.2 90.9807 L 140.1 91.0807 L 140 91.0807 L 139.9 90.9807 L 138.5 90.9807 L 138.5 97.9621 L 139.9 97.9621 L 140 97.8621 L 140.1 97.8621 L 140.2 97.9621 L 141.6 97.9621 L 141.6 104.152 L 140.2 104.152 L 140.1 104.252 L 140 104.252 L 139.9 104.152 L 138.5 104.152 L 138.5 111.134 L 139.9 111.134 L 140 111.034 L 140.1 111.034 L 140.2 111.134 L 141.6 111.134 L 141.6 117.324 L 140.2 117.324 L 140.1 117.424 L 140 117.424 L 139.9 117.324 L 138.5 117.324 L 138.5 121.3"
         id="path1095" />
      <path
         style="fill:none;stroke:#000000;stroke-width:0.22;stroke-miterlimit:4;stroke-dasharray:none"
         d="M 138.5 121.3 L 133.628 121.3 L 133.628 122.7 L 133.728 122.8 L 133.728 122.9 L 133.628 123 L 133.628 124.4 L 127.438 124.4 L 127.438 123 L 127.338 122.9 L 127.338 122.8 L 127.438 122.7 L 127.438 121.3 L 119.562 121.3 L 119.562 122.7 L 119.662 122.8 L 119.662 122.9 L 119.562 123 L 119.562 124.4 L 113.372 124.4 L 113.372 123 L 113.272 122.9 L 113.272 122.8 L 113.372 122.7 L 113.372 121.3 L 108.5 121.3"
         id="path1097" />
      <path
         style="fill:none;stroke:#000000;stroke-width:0.22;stroke-miterlimit:4;stroke-dasharray:none"
         d="M 108.5 121.3 L 108.5 117.324 L 107.1 117.324 L 107 117.424 L 106.9 117.424 L 106.8 117.324 L 105.4 117.324 L 105.4 111.134 L 106.8 111.134 L 106.9 111.034 L 107 111.034 L 107.1 111.134 L 108.5 111.134 L 108.5 104.152 L 107.1 104.152 L 107 104.252 L 106.9 104.252 L 106.8 104.152 L 105.4 104.152 L 105.4 97.9621 L 106.8 97.9621 L 106.9 97.8621 L 107 97.8621 L 107.1 97.9621 L 108.5 97.9621 L 108.5 90.9807 L 107.1 90.9807 L 107 91.0807 L 106.9 91.0807 L 106.8 90.9807 L 105.4 90.9807 L 105.4 84.7907 L 106.8 84.7907 L 106.9 84.6907 L 107 84.6907 L 107.1 84.7907 L 108.5 84.7907 L 108.5 77.8093 L 107.1 77.8093 L 107 77.9093 L 106.9 77.9093 L 106.8 77.8093 L 105.4 77.8093 L 105.4 71.6193 L 106.8 71.6193 L 106.9 71.5193 L 107 71.5193 L 107.1 71.6193 L 108.5 71.6193 L 108.5 64.6379 L 107.1 64.6379 L 107 64.7379 L 106.9 64.7379 L 106.8 64.6379 L 105.4 64.6379 L 105.4 58.4479 L 106.8 58.4479 L 106.9 58.3479 L 107 58.3479 L 107.1 58.4479 L 108.5 58.4479 L 108.5 51.4664 L 107.1 51.4664 L 107 51.5664 L 106.9 51.5664 L 106.8 51.4664 L 105.4 51.4664 L 105.4 45.2764 L 106.8 45.2764 L 106.9 45.1764 L 107 45.1764 L 107.1 45.2764 L 108.5 45.2764 L 108.5 41.3"
         id="path1099" />
    </g>
    <g
       id="panel4570"
       style="stroke-width:0.22;stroke-miterlimit:4;stroke-dasharray:none">
      <path
         style="fill:none;stroke:#000000;stroke-width:0.22;stroke-miterlimit:4;stroke-dasharray:none"
         d="M 142.6 38.2 L 148.728 38.2 L 148.728 39.6 L 148.828 39.7 L 148.828 39.8 L 148.728 39.9 L 148.728 41.3 L 154.538 41.3 L 154.538 39.9 L 154.438 39.8 L 154.438 39.7 L 154.538 39.6 L 154.538 38.2 L 160.762 38.2 L 160.762 39.6 L 160.862 39.7 L 160.862 39.8 L 160.762 39.9 L 160.762 41.3 L 166.572 41.3 L 166.572 39.9 L 166.472 39.8 L 166.472 39.7 L 166.572 39.6 L 166.572 38.2 L 172.795 38.2 L 172.795 39.6 L 172.895 39.7 L 172.895 39.8 L 172.795 39.9 L 172.795 41.3 L 178.605 41.3 L 178.605 39.9 L 178.505 39.8 L 178.505 39.7 L 178.605 39.6 L 178.605 38.2 L 184.828 38.2 L 184.828 39.6 L 184.928 39.7 L 184.928 39.8 L 184.828 39.9 L 184.828 41.3 L 190.638 41.3 L 190.638 39.9 L 190.538 39.8 L 190.538 39.7 L 190.638 39.6 L 190.638 38.2 L 196.862 38.2 L 196.862 39.6 L 196.962 39.7 L 196.962 39.8 L 196.862 39.9 L 196.862 41.3 L 202.672 41.3 L 202.672 39.9 L 202.572 39.8 L 202.572 39.7 L 202.672 39.6 L 202.672 38.2 L 208.8 38.2"
         id="path1102" />
      <path
         style="fill:none;stroke:#000000;stroke-width:0.22;stroke-miterlimit:4;stroke-dasharray:none"
         d="M 208.8 38.2 L 208.8 45.4664 L 207.4 45.4664 L 207.3 45.5664 L 207.2 45.5664 L 207.1 45.4664 L 205.7 45.4664 L 205.7 51.2764 L 207.1 51.2764 L 207.2 51.1764 L 207.3 51.1764 L 207.4 51.2764 L 208.8 51.2764 L 208.8 58.6379 L 207.4 58.6379 L 207.3 58.7379 L 207.2 58.7379 L 207.1 58.6379 L 205.7 58.6379 L 205.7 64.4479 L 207.1 64.4479 L 207.2 64.3479 L 207.3 64.3479 L 207.4 64.4479 L 208.8 64.4479 L 208.8 71.8093 L 207.4 71.8093 L 207.3 71.9093 L 207.2 71.9093 L 207.1 71.8093 L 205.7 71.8093 L 205.7 77.6193 L 207.1 77.6193 L 207.2 77.5193 L 207.3 77.5193 L 207.4 77.6193 L 208.8 77.6193 L 208.8 84.9807 L 207.4 84.9807 L 207.3 85.0807 L 207.2 85.0807 L 207.1 84.9807 L 205.7 84.9807 L 205.7 90.7907 L 207.1 90.7907 L 207.2 90.6907 L 207.3 90.6907 L 207.4 90.7907 L 208.8 90.7907 L 208.8 98.1521 L 207.4 98.1521 L 207.3 98.2521 L 207.2 98.2521 L 207.1 98.1521 L 205.7 98.1521 L 205.7 103.962 L 207.1 103.962 L 207.2 103.862 L 207.3 103.862 L 207.4 103.962 L 208.8 103.962 L 208.8 111.324 L 207.4 111.324 L 207.3 111.424 L 207.2 111.424 L 207.1 111.324 L 205.7 111.324 L 205.7 117.134 L 207.1 117.134 L 207.2 117.034 L 207.3 117.034 L 207.4 117.134 L 208.8 117.134 L 208.8 124.4"
         id="path1104" />
      <path
         style="fill:none;stroke:#000000;stroke-width:0.22;stroke-miterlimit:4;stroke-dasharray:none"
         d="M 208.8 124.4 L 202.672 124.4 L 202.672 123 L 202.572 122.9 L 202.572 122.8 L 202.672 122.7 L 202.672 121.3 L 196.862 121.3 L 196.862 122.7 L 196.962 122.8 L 196.962 122.9 L 196.862 123 L 196.862 124.4 L 190.638 124.4 L 190.638 123 L 190.538 122.9 L 190.538 122.8 L 190.638 122.7 L 190.638 121.3 L 184.828 121.3 L 184.828 122.7 L 184.928 122.8 L 184.928 122.9 L 184.828 123 L 184.828 124.4 L 178.605 124.4 L 178.605 123 L 178.505 122.9 L 178.505 122.8 L 178.605 122.7 L 178.605 121.3 L 172.795 121.3 L 172.795 122.7 L 172.895 122.8 L 172.895 122.9 L 172.795 123 L 172.795 124.4 L 166.572 124.4 L 166.572 123 L 166.472 122.9 L 166.472 122.8 L 166.572 122.7 L 166.572 121.3 L 160.762 121.3 L 160.762 122.7 L 160.862 122.8 L 160.862 122.9 L 160.762 123 L 160.762 124.4 L 154.538 124.4 L 154.538 123 L 154.438 122.9 L 154.438 122.8 L 154.538 122.7 L 154.538 121.3 L 148.728 121.3 L 148.728 122.7 L 148.828 122.8 L 148.828 122.9 L 148.728 123 L 148.728 124.4 L 142.6 124.4"
         id="path1106" />
      <path
         style="fill:none;stroke:#000000;stroke-width:0.22;stroke-miterlimit:4;stroke-dasharray:none"
         d="M 142.6 124.4 L 142.6 117.134 L 144 117.134 L 144.1 117.034 L 144.2 117.034 L 144.3 117.134 L 145.7 117.134 L 145.7 111.324 L 144.3 111.324 L 144.2 111.424 L 144.1 111.424 L 144 111.324 L 142.6 111.324 L 142.6 103.962 L 144 103.962 L 144.1 103.862 L 144.2 103.862 L 144.3 103.962 L 145.7 103.962 L 145.7 98.1521 L 144.3 98.1521 L 144.2 98.2521 L 144.1 98.2521 L 144 98.1521 L 142.6 98.1521 L 142.6 90.7907 L 144 90.7907 L 144.1 90.6907 L 144.2 90.6907 L 144.3 90.7907 L 145.7 90.7907 L 145.7 84.9807 L 144.3 84.9807 L 144.2 85.0807 L 144.1 85.0807 L 144 84.9807 L 142.6 84.9807 L 142.6 77.6193 L 144 77.6193 L 144.1 77.5193 L 144.2 77.5193 L 144.3 77.6193 L 145.7 77.6193 L 145.7 71.8093 L 144.3 71.8093 L 144.2 71.9093 L 144.1 71.9093 L 144 71.8093 L 142.6 71.8093 L 142.6 64.4479 L 144 64.4479 L 144.1 64.3479 L 144.2 64.3479 L 144.3 64.4479 L 145.7 64.4479 L 145.7 58.6379 L 144.3 58.6379 L 144.2 58.7379 L 144.1 58.7379 L 144 58.6379 L 142.6 58.6379 L 142.6 51.2764 L 144 51.2764 L 144.1 51.1764 L 144.2 51.1764 L 144.3 51.2764 L 145.7 51.2764 L 145.7 45.4664 L 144.3 45.4664 L 144.2 45.5664 L 144.1 45.5664 L 144 45.4664 L 142.6 45.4664 L 142.6 38.2"
         id="path1108" />
    </g>
    <g
       id="panel4201"
       style="stroke-width:0.22;stroke-miterlimit:4;stroke-dasharray:none"
       transform="translate(1.4333333,167.2717)">
      <path
         style="fill:none;stroke:#000000;stroke-width:0.22;stroke-miterlimit:4;stroke-dasharray:none"
         d="m 38.2,4.1 h 5.9383 V 2.7 l -0.1,-0.1 V 2.5 l 0.1,-0.1 V 1 h 6.19 v 1.4 l 0.1,0.1 v 0.1 l -0.1,0.1 v 1.4 h 5.8434 V 2.7 l -0.1,-0.1 V 2.5 l 0.1,-0.1 V 1 h 6.19 v 1.4 l 0.1,0.1 v 0.1 l -0.1,0.1 V 4.1 H 68.205 V 2.7 l -0.1,-0.1 V 2.5 l 0.1,-0.1 V 1 h 6.19 v 1.4 l 0.1,0.1 v 0.1 l -0.1,0.1 v 1.4 h 5.8433 V 2.7 l -0.1,-0.1 V 2.5 l 0.1,-0.1 V 1 h 6.19 v 1.4 l 0.1,0.1 v 0.1 l -0.1,0.1 v 1.4 h 5.8434 V 2.7 l -0.1,-0.1 V 2.5 l 0.1,-0.1 V 1 h 6.19 v 1.4 l 0.1,0.1 v 0.1 l -0.1,0.1 V 4.1 H 104.4"
         id="path1111" />
      <path
         style="fill:none;stroke:#000000;stroke-width:0.22;stroke-miterlimit:4;stroke-dasharray:none"
         d="M 104.4,4.1 V 9.16167 H 103 l -0.1,0.1 h -0.1 l -0.1,-0.1 h -1.4 v 5.81003 h 1.4 l 0.1,-0.1 h 0.1 l 0.1,0.1 h 1.4 v 8.2566 H 103 l -0.1,0.1 h -0.1 l -0.1,-0.1 h -1.4 v 5.81 h 1.4 l 0.1,-0.1 h 0.1 l 0.1,0.1 h 1.4 V 34.1"
         id="path1113" />
      <path
         style="fill:none;stroke:#000000;stroke-width:0.22;stroke-miterlimit:4;stroke-dasharray:none"
         d="m 104.4,34.1 h -5.9383 v 1.4 l 0.1,0.1 v 0.1 l -0.1,0.1 v 1.4 h -6.19 v -1.4 l -0.1,-0.1 v -0.1 l 0.1,-0.1 v -1.4 h -5.8434 v 1.4 l 0.1,0.1 v 0.1 l -0.1,0.1 v 1.4 h -6.19 v -1.4 l -0.1,-0.1 v -0.1 l 0.1,-0.1 V 34.1 H 74.395 v 1.4 l 0.1,0.1 v 0.1 l -0.1,0.1 v 1.4 h -6.19 v -1.4 l -0.1,-0.1 v -0.1 l 0.1,-0.1 v -1.4 h -5.8433 v 1.4 l 0.1,0.1 v 0.1 l -0.1,0.1 v 1.4 h -6.19 v -1.4 l -0.1,-0.1 v -0.1 l 0.1,-0.1 v -1.4 h -5.8434 v 1.4 l 0.1,0.1 v 0.1 l -0.1,0.1 v 1.4 h -6.19 v -1.4 l -0.1,-0.1 v -0.1 l 0.1,-0.1 V 34.1 H 38.2"
         id="path1115" />
      <path
         style="fill:none;stroke:#000000;stroke-width:0.22;stroke-miterlimit:4;stroke-dasharray:none"
         d="m 38.2,34.1 v -5.0617 h 1.4 l 0.1,-0.1 h 0.1 l 0.1,0.1 h 1.4 v -5.81 h -1.4 l -0.1,0.1 h -0.1 l -0.1,-0.1 h -1.4 v -8.2566 h 1.4 l 0.1,-0.1 h 0.1 l 0.1,0.1 h 1.4 V 9.16167 h -1.4 l -0.1,0.1 h -0.1 l -0.1,-0.1 H 38.2 V 4.1"
         id="path1117" />
    </g>
    <circle
       style="fill:none;stroke:#000000;stroke-width:0.22;stroke-linejoin:round;stroke-miterlimit:4;stroke-dasharray:none"
       id="path1182"
       cx="-24.04401"
       cy="-45.210678"
       r="2.7269711" />
    <g
       id="g1222"
       transform="matrix(0.87131734,0,0,0.87131734,226.58925,154.58034)"
       style="stroke-width:0.252491;stroke-miterlimit:4;stroke-dasharray:none">
      <path
         id="path1177"
         style="fill:none;stroke:#000000;stroke-width:0.252491;stroke-linecap:butt;stroke-linejoin:miter;stroke-miterlimit:4;stroke-dasharray:none;stroke-opacity:1"
         d="m -84.666666,-31.749999 c -8.41492,19.405872 -18.412974,36.2817614 -34.006714,52.916666 6.20862,7.815535 10.56542,4.044114 15.61404,4.600752 -9.78329,13.551662 -18.4655,20.005865 -27.32495,27.603483 1.98785,3.474142 5.24986,8.05933 19.51767,4.600753 -9.19222,10.092228 -19.38083,21.927699 -28.30059,24.153047 2.12393,7.693673 12.87438,10.237126 20.49383,9.200989 -11.15736,11.335169 -24.08433,20.759639 -36.10787,28.753799 17.56389,13.30922 37.4141,20.33251 59.531251,13.53509 l -2.645834,30.42708 h 12.435417 14.022916 l -3.96875,-30.42708 c 21.715024,6.79742 40.696089,-0.22587 57.940649,-13.53509 -11.804939,-7.99416 -24.496556,-17.41863 -35.451066,-28.753799 7.480919,1.036137 18.035405,-1.507316 20.120737,-9.200989 -8.757602,-2.225348 -18.760818,-14.060819 -27.785901,-24.153047 14.008391,3.458577 17.210945,-1.126611 19.162654,-4.600753 -8.698359,-7.597618 -17.222401,-14.051821 -26.827821,-27.603483 4.956821,-0.556638 9.234599,3.214783 15.330331,-4.600752 -15.310212,-16.6349046 -23.488081,-33.510794 -31.749999,-52.916666 z"
         sodipodi:nodetypes="ccccccccccccccccccccc" />
      <circle
         style="fill:none;stroke:#000000;stroke-width:0.252491;stroke-linejoin:round;stroke-miterlimit:4;stroke-dasharray:none"
         id="circle1184"
         cx="-62.937759"
         cy="19.347654"
         r="2.7269711" />
      <circle
         style="fill:none;stroke:#000000;stroke-width:0.252491;stroke-linejoin:round;stroke-miterlimit:4;stroke-dasharray:none"
         id="circle1186"
         cx="-83.774109"
         cy="37.422562"
         r="2.7269711" />
      <circle
         style="fill:none;stroke:#000000;stroke-width:0.252491;stroke-linejoin:round;stroke-miterlimit:4;stroke-dasharray:none"
         id="circle1188"
         cx="-106.36774"
         cy="61.522438"
         r="2.7269711" />
      <circle
         style="fill:none;stroke:#000000;stroke-width:0.252491;stroke-linejoin:round;stroke-miterlimit:4;stroke-dasharray:none"
         id="circle1190"
         cx="-129.21242"
         cy="83.865036"
         r="2.7269711" />
      <circle
         style="fill:none;stroke:#000000;stroke-width:0.252491;stroke-linejoin:round;stroke-miterlimit:4;stroke-dasharray:none"
         id="circle1192"
         cx="-47.122219"
         cy="81.856712"
         r="2.7269711" />
      <circle
         style="fill:none;stroke:#000000;stroke-width:0.252491;stroke-linejoin:round;stroke-miterlimit:4;stroke-dasharray:none"
         id="circle1194"
         cx="-72.226257"
         cy="101.93994"
         r="2.7269711" />
      <circle
         style="fill:none;stroke:#000000;stroke-width:0.252491;stroke-linejoin:round;stroke-miterlimit:4;stroke-dasharray:none"
         id="circle1196"
         cx="-103.10423"
         cy="126.5419"
         r="2.7269711" />
      <circle
         style="fill:none;stroke:#000000;stroke-width:0.252491;stroke-linejoin:round;stroke-miterlimit:4;stroke-dasharray:none"
         id="circle1198"
         cx="-110.38441"
         cy="20.351826"
         r="2.7269711" />
      <circle
         style="fill:none;stroke:#000000;stroke-width:0.252491;stroke-linejoin:round;stroke-miterlimit:4;stroke-dasharray:none"
         id="circle1200"
         cx="-85.53141"
         cy="-0.23348421"
         r="2.7269711" />
    </g>
    <rect
       style="fill:none;stroke:#000000;stroke-width:0.22;stroke-linejoin:round;stroke-miterlimit:4;stroke-dasharray:none"
       id="rect1224"
       width="18.520828"
       height="14.552076"
       x="48.947918"
       y="142.875"
       ry="0" />
    <rect
       style="fill:none;stroke:#000000;stroke-width:0.22;stroke-linejoin:round;stroke-miterlimit:4;stroke-dasharray:none"
       id="rect1226"
       width="23.164612"
       height="3.0272071"
       x="69.717697"
       y="-72.813606"
       transform="rotate(90)" />
    <circle
       style="fill:none;stroke:#000000;stroke-width:0.22;stroke-linejoin:round;stroke-miterlimit:4;stroke-dasharray:none"
       id="path1228"
       cx="119.33186"
       cy="104.51041"
       r="1.3229166" />
    <circle
       style="fill:none;stroke:#000000;stroke-width:0.22;stroke-linejoin:round;stroke-miterlimit:4;stroke-dasharray:none"
       id="circle1230"
       cx="123.01524"
       cy="104.51041"
       r="1.3229166" />
    <circle
       style="fill:none;stroke:#000000;stroke-width:0.22;stroke-linejoin:round;stroke-miterlimit:4;stroke-dasharray:none"
       id="circle1232"
       cx="126.7319"
       cy="104.51041"
       r="1.3229166" />
    <circle
       style="fill:none;stroke:#000000;stroke-width:0.22;stroke-linejoin:round;stroke-miterlimit:4;stroke-dasharray:none"
       id="circle1234"
       cx="130.4153"
       cy="104.51041"
       r="1.3229166" />
    <circle
       style="fill:none;stroke:#000000;stroke-width:0.22;stroke-linejoin:round;stroke-miterlimit:4;stroke-dasharray:none"
       id="circle1236"
       cx="117.62164"
       cy="108.15049"
       r="1.3229166" />
    <circle
       style="fill:none;stroke:#000000;stroke-width:0.22;stroke-linejoin:round;stroke-miterlimit:4;stroke-dasharray:none"
       id="circle1238"
       cx="121.30503"
       cy="108.15049"
       r="1.3229166" />
    <circle
       style="fill:none;stroke:#000000;stroke-width:0.22;stroke-linejoin:round;stroke-miterlimit:4;stroke-dasharray:none"
       id="circle1240"
       cx="125.02169"
       cy="108.15049"
       r="1.3229166" />
    <circle
       style="fill:none;stroke:#000000;stroke-width:0.22;stroke-linejoin:round;stroke-miterlimit:4;stroke-dasharray:none"
       id="circle1242"
       cx="128.70509"
       cy="108.15049"
       r="1.3229166" />
    <circle
       style="fill:none;stroke:#000000;stroke-width:0.22;stroke-linejoin:round;stroke-miterlimit:4;stroke-dasharray:none"
       id="circle1244"
       cx="119.33186"
       cy="111.52214"
       r="1.3229166" />
    <circle
       style="fill:none;stroke:#000000;stroke-width:0.22;stroke-linejoin:round;stroke-miterlimit:4;stroke-dasharray:none"
       id="circle1246"
       cx="123.01524"
       cy="111.52214"
       r="1.3229166" />
    <circle
       style="fill:none;stroke:#000000;stroke-width:0.22;stroke-linejoin:round;stroke-miterlimit:4;stroke-dasharray:none"
       id="circle1248"
       cx="126.7319"
       cy="111.52214"
       r="1.3229166" />
    <circle
       style="fill:none;stroke:#000000;stroke-width:0.22;stroke-linejoin:round;stroke-miterlimit:4;stroke-dasharray:none"
       id="circle1250"
       cx="130.4153"
       cy="111.52214"
       r="1.3229166" />
    <circle
       style="fill:none;stroke:#000000;stroke-width:0.22;stroke-linejoin:round;stroke-miterlimit:4;stroke-dasharray:none"
       id="circle1252"
       cx="117.62164"
       cy="115.16222"
       r="1.3229166" />
    <circle
       style="fill:none;stroke:#000000;stroke-width:0.22;stroke-linejoin:round;stroke-miterlimit:4;stroke-dasharray:none"
       id="circle1254"
       cx="121.30503"
       cy="115.16222"
       r="1.3229166" />
    <circle
       style="fill:none;stroke:#000000;stroke-width:0.22;stroke-linejoin:round;stroke-miterlimit:4;stroke-dasharray:none"
       id="circle1256"
       cx="125.02169"
       cy="115.16222"
       r="1.3229166" />
    <circle
       style="fill:none;stroke:#000000;stroke-width:0.22;stroke-linejoin:round;stroke-miterlimit:4;stroke-dasharray:none"
       id="circle1258"
       cx="128.70509"
       cy="115.16222"
       r="1.3229166" />
    <rect
       style="fill:none;stroke:#000000;stroke-width:0.22;stroke-linejoin:round;stroke-miterlimit:4;stroke-dasharray:none"
       id="rect1260"
       width="5.2916617"
       height="11.90625"
       x="76.729164"
       y="75.40625"
       ry="0" />
  </g>
</svg>
